<?xml version="1.0" standalone="no"?><!DOCTYPE svg PUBLIC "-//W3C//DTD SVG 1.1//EN" "http://www.w3.org/Graphics/SVG/1.1/DTD/svg11.dtd"><svg t="1746611289816" class="icon" viewBox="0 0 1024 1024" version="1.1" xmlns="http://www.w3.org/2000/svg" p-id="4626" xmlns:xlink="http://www.w3.org/1999/xlink" width="200" height="200"><path d="M964.266667 234.666667c-4.266667-8.533333-17.066667-12.8-25.6-12.8H196.266667L170.666667 119.466667c-4.266667-12.8-17.066667-25.6-34.133334-25.6H64c-17.066667 0-29.866667 17.066667-29.866667 34.133333s12.8 34.133333 34.133334 34.133333h51.2l132.266666 529.066667c4.266667 12.8 17.066667 25.6 29.866667 25.6h554.666667c12.8 0 25.6-8.533333 29.866666-25.6l106.666667-426.666667c0-8.533333-4.266667-21.333333-8.533333-29.866666z m-157.866667 413.866666H302.933333L213.333333 290.133333h682.666667l-89.6 358.4zM277.333333 733.866667c-51.2 0-93.866667 42.666667-93.866666 93.866666s42.666667 93.866667 93.866666 93.866667 93.866667-42.666667 93.866667-93.866667-42.666667-93.866667-93.866667-93.866666z m0 128c-17.066667 0-34.133333-12.8-34.133333-34.133334s12.8-34.133333 34.133333-34.133333 34.133333 12.8 34.133334 34.133333-17.066667 34.133333-34.133334 34.133334zM832 733.866667c-51.2 0-93.866667 42.666667-93.866667 93.866666s42.666667 93.866667 93.866667 93.866667 93.866667-42.666667 93.866667-93.866667-42.666667-93.866667-93.866667-93.866666z m0 128c-17.066667 0-34.133333-12.8-34.133333-34.133334s12.8-34.133333 34.133333-34.133333 34.133333 12.8 34.133333 34.133333-17.066667 34.133333-34.133333 34.133334z" p-id="4627" fill="#ff4544"></path></svg>