<?xml version="1.0" standalone="no"?><!DOCTYPE svg PUBLIC "-//W3C//DTD SVG 1.1//EN" "http://www.w3.org/Graphics/SVG/1.1/DTD/svg11.dtd"><svg t="1746589622379" class="icon" viewBox="0 0 1024 1024" version="1.1" xmlns="http://www.w3.org/2000/svg" p-id="6822" xmlns:xlink="http://www.w3.org/1999/xlink" width="200" height="200"><path d="M853.333333 358.4l-320-256c-12.8-8.533333-29.866667-8.533333-38.4 0L170.666667 358.4c-4.266667 8.533333-8.533333 17.066667-8.533334 25.6v512c0 17.066667 12.8 34.133333 34.133334 34.133333h640c17.066667 0 34.133333-12.8 34.133333-34.133333V384c-8.533333-8.533333-12.8-17.066667-17.066667-25.6z m-418.133333 503.466667v-213.333334h149.333333v213.333334h-149.333333z m213.333333 0v-247.466667c0-17.066667-12.8-34.133333-34.133333-34.133333h-213.333333c-17.066667 0-34.133333 12.8-34.133334 34.133333v247.466667H221.866667V401.066667L512 170.666667l290.133333 230.4v465.066666h-153.6z" p-id="6823" fill="#ff4544"></path></svg>