<?xml version="1.0" standalone="no"?><!DOCTYPE svg PUBLIC "-//W3C//DTD SVG 1.1//EN" "http://www.w3.org/Graphics/SVG/1.1/DTD/svg11.dtd"><svg t="1746588678313" class="icon" viewBox="0 0 1024 1024" version="1.1" xmlns="http://www.w3.org/2000/svg" p-id="6437" xmlns:xlink="http://www.w3.org/1999/xlink" width="200" height="200"><path d="M448 221.866667c-55.466667 0-106.666667 25.6-145.066667 64-8.533333 12.8-8.533333 34.133333 4.266667 46.933333 12.8 8.533333 34.133333 8.533333 46.933333-4.266667 21.333333-25.6 55.466667-38.4 93.866667-38.4s72.533333 12.8 93.866667 38.4c8.533333 8.533333 17.066667 12.8 25.6 12.8 8.533333 0 17.066667-4.266667 21.333333-8.533333 12.8-12.8 12.8-29.866667 4.266667-46.933333-38.4-38.4-89.6-64-145.066667-64z" p-id="6438" fill="#b7b7b7"></path><path d="M908.8 832l-145.066667-145.066667c51.2-68.266667 81.066667-149.333333 81.066667-238.933333 0-217.6-174.933333-392.533333-392.533333-392.533333s-392.533333 174.933333-392.533334 392.533333 174.933333 392.533333 392.533334 392.533333c89.6 0 170.666667-29.866667 238.933333-81.066666l145.066667 145.066666c8.533333 8.533333 25.6 17.066667 38.4 17.066667s25.6-4.266667 38.4-17.066667c17.066667-17.066667 17.066667-51.2-4.266667-72.533333z m-789.333333-384c0-183.466667 149.333333-332.8 332.8-332.8s332.8 149.333333 332.8 332.8-149.333333 332.8-332.8 332.8-332.8-149.333333-332.8-332.8z" p-id="6439" fill="#b7b7b7"></path></svg>