<?xml version="1.0" standalone="no"?><!DOCTYPE svg PUBLIC "-//W3C//DTD SVG 1.1//EN" "http://www.w3.org/Graphics/SVG/1.1/DTD/svg11.dtd"><svg t="1746584041041" class="icon" viewBox="0 0 1024 1024" version="1.1" xmlns="http://www.w3.org/2000/svg" p-id="2323" xmlns:xlink="http://www.w3.org/1999/xlink" width="200" height="200"><path d="M426.666667 93.866667H128c-17.066667 0-34.133333 17.066667-34.133333 34.133333v234.666667c0 17.066667 12.8 34.133333 34.133333 34.133333h298.666667c17.066667 0 34.133333-12.8 34.133333-34.133333V128c0-17.066667-17.066667-34.133333-34.133333-34.133333z m-34.133334 238.933333H162.133333v-170.666667h234.666667v170.666667zM896 631.466667h-298.666667c-17.066667 0-34.133333 12.8-34.133333 34.133333V896c0 17.066667 12.8 34.133333 34.133333 34.133333h298.666667c17.066667 0 34.133333-12.8 34.133333-34.133333v-234.666667c0-17.066667-17.066667-29.866667-34.133333-29.866666z m-34.133333 230.4h-234.666667v-170.666667h234.666667v170.666667zM896 93.866667h-298.666667c-17.066667 0-34.133333 12.8-34.133333 34.133333v362.666667c0 17.066667 12.8 34.133333 34.133333 34.133333h298.666667c17.066667 0 34.133333-12.8 34.133333-34.133333V128c0-17.066667-17.066667-34.133333-34.133333-34.133333z m-34.133333 366.933333h-234.666667v-298.666667h234.666667v298.666667zM426.666667 503.466667H128c-17.066667 0-34.133333 12.8-34.133333 34.133333V896c0 17.066667 12.8 34.133333 34.133333 34.133333h298.666667c17.066667 0 34.133333-12.8 34.133333-34.133333v-362.666667c0-17.066667-17.066667-29.866667-34.133333-29.866666z m-34.133334 358.4H162.133333v-298.666667h234.666667v298.666667z" p-id="2324"></path></svg>