<?xml version="1.0" standalone="no"?><!DOCTYPE svg PUBLIC "-//W3C//DTD SVG 1.1//EN" "http://www.w3.org/Graphics/SVG/1.1/DTD/svg11.dtd"><svg t="1746680457327" class="icon" viewBox="0 0 1024 1024" version="1.1" xmlns="http://www.w3.org/2000/svg" p-id="3447" xmlns:xlink="http://www.w3.org/1999/xlink" width="200" height="200"><path d="M512 861.866667H162.133333V162.133333H512c17.066667 0 34.133333-12.8 34.133333-34.133333s-17.066667-34.133333-34.133333-34.133333H128c-17.066667 0-34.133333 17.066667-34.133333 34.133333v768c0 17.066667 12.8 34.133333 34.133333 34.133333h384c17.066667 0 34.133333-12.8 34.133333-34.133333s-17.066667-34.133333-34.133333-34.133333z" p-id="3448" fill="#2c2c2c"></path><path d="M930.133333 512v-4.266667-8.533333c0-4.266667-4.266667-8.533333-8.533333-12.8L725.333333 298.666667c-12.8-12.8-34.133333-12.8-46.933333 0s-8.533333 29.866667 4.266667 42.666666l136.533333 136.533334H341.333333c-17.066667 0-34.133333 12.8-34.133333 34.133333s12.8 34.133333 34.133333 34.133333h477.866667L682.666667 682.666667c-12.8 12.8-12.8 34.133333 0 46.933333 4.266667 4.266667 12.8 8.533333 21.333333 8.533333s17.066667-4.266667 21.333333-8.533333l192-192c8.533333-8.533333 12.8-17.066667 12.8-25.6-4.266667 0 0 0 0 0z" p-id="3449" fill="#2c2c2c"></path></svg>