<?xml version="1.0" standalone="no"?><!DOCTYPE svg PUBLIC "-//W3C//DTD SVG 1.1//EN" "http://www.w3.org/Graphics/SVG/1.1/DTD/svg11.dtd"><svg t="1746588633626" class="icon" viewBox="0 0 1155 1024" version="1.1" xmlns="http://www.w3.org/2000/svg" p-id="4019" xmlns:xlink="http://www.w3.org/1999/xlink" width="225.5859375" height="200"><path d="M925.643487 49.467077A602.794667 602.794667 0 0 1 1155.282051 523.447795c0 187.286974-85.858462 360.526769-230.084923 474.322051a52.512821 52.512821 0 1 1-65.063384-82.445128A497.821538 497.821538 0 0 0 1050.25641 523.447795c0-154.650256-70.734769-297.485128-189.755077-391.588103a52.512821 52.512821 0 1 1 65.115898-82.392615z m-100.614564 202.09559A366.697026 366.697026 0 0 1 945.230769 523.447795c0 105.366974-44.635897 203.670974-121.330872 272.909128a52.512821 52.512821 0 0 1-70.367179-77.955282A261.723897 261.723897 0 0 0 840.205128 523.447795c0-74.962051-31.507692-144.725333-85.858461-194.218667a52.512821 52.512821 0 0 1 70.682256-77.666461zM418.947282 56.031179L287.822769 236.307692H157.538462a157.538462 157.538462 0 0 0-157.538462 157.538462v236.307692l0.105026 5.907692A157.538462 157.538462 0 0 0 157.538462 787.692308h133.330051l131.754666 164.706461A131.282051 131.282051 0 0 0 656.410256 870.373744V133.251282a131.282051 131.282051 0 0 0-237.462974-77.193846z m121.619692 55.978667a26.25641 26.25641 0 0 1 10.817641 21.267692v737.096206a26.25641 26.25641 0 0 1-46.73641 16.410256l-139.684102-174.552615A78.769231 78.769231 0 0 0 303.497846 682.666667H157.538462a52.512821 52.512821 0 0 1-52.512821-52.512821v-236.307692a52.512821 52.512821 0 0 1 52.512821-52.512821h143.675076a78.769231 78.769231 0 0 0 63.724308-32.426666l138.948923-191.094154a26.25641 26.25641 0 0 1 36.680205-5.77641z" fill="#ffffff" p-id="4020"></path></svg>