<?xml version="1.0" standalone="no"?><!DOCTYPE svg PUBLIC "-//W3C//DTD SVG 1.1//EN" "http://www.w3.org/Graphics/SVG/1.1/DTD/svg11.dtd"><svg t="1746605287772" class="icon" viewBox="0 0 1024 1024" version="1.1" xmlns="http://www.w3.org/2000/svg" p-id="3576" xmlns:xlink="http://www.w3.org/1999/xlink" width="200" height="200"><path d="M968.533333 405.333333c-4.266667-12.8-12.8-21.333333-25.6-21.333333l-277.333333-42.666667-123.733333-251.733333c-4.266667-12.8-17.066667-17.066667-29.866667-17.066667-12.8 0-21.333333 8.533333-29.866667 17.066667l-123.733333 256-277.333333 38.4c-12.8 0-21.333333 8.533333-25.6 21.333333s0 25.6 8.533333 34.133334l200.533333 196.266666-46.933333 273.066667c0 12.8 4.266667 25.6 12.8 29.866667 4.266667 4.266667 12.8 4.266667 17.066667 4.266666 4.266667 0 8.533333 0 17.066666-4.266666l247.466667-132.266667 247.466667 132.266667c12.8 4.266667 25.6 4.266667 34.133333-4.266667 8.533333-8.533333 12.8-21.333333 12.8-29.866667l-46.933333-273.066666 200.533333-196.266667c8.533333-4.266667 12.8-17.066667 8.533333-29.866667z m-264.533333 196.266667c-8.533333 8.533333-12.8 17.066667-8.533333 29.866667l38.4 226.133333-204.8-110.933333c-4.266667-4.266667-8.533333-4.266667-17.066667-4.266667s-8.533333 0-17.066667 4.266667l-204.8 110.933333 38.4-226.133333c0-8.533333 0-21.333333-8.533333-29.866667l-166.4-166.4L384 401.066667c8.533333 0 21.333333-8.533333 25.6-17.066667L512 179.2l102.4 209.066667c4.266667 8.533333 12.8 17.066667 25.6 17.066666l230.4 34.133334-166.4 162.133333z" p-id="3577" fill="#ffffff"></path></svg>